G04 #@! TF.GenerationSoftware,KiCad,Pcbnew,(5.1.5)-3*
G04 #@! TF.CreationDate,2020-06-24T13:55:20-05:00*
G04 #@! TF.ProjectId,PressureSensor,50726573-7375-4726-9553-656e736f722e,rev?*
G04 #@! TF.SameCoordinates,Original*
G04 #@! TF.FileFunction,Soldermask,Top*
G04 #@! TF.FilePolarity,Negative*
%FSLAX46Y46*%
G04 Gerber Fmt 4.6, Leading zero omitted, Abs format (unit mm)*
G04 Created by KiCad (PCBNEW (5.1.5)-3) date 2020-06-24 13:55:20*
%MOMM*%
%LPD*%
G04 APERTURE LIST*
%ADD10C,0.100000*%
G04 APERTURE END LIST*
D10*
G36*
X161403512Y-94988927D02*
G01*
X161552812Y-95018624D01*
X161716784Y-95086544D01*
X161864354Y-95185147D01*
X161989853Y-95310646D01*
X162088456Y-95458216D01*
X162156376Y-95622188D01*
X162191000Y-95796259D01*
X162191000Y-95973741D01*
X162156376Y-96147812D01*
X162088456Y-96311784D01*
X161989853Y-96459354D01*
X161864354Y-96584853D01*
X161716784Y-96683456D01*
X161552812Y-96751376D01*
X161403512Y-96781073D01*
X161378742Y-96786000D01*
X161201258Y-96786000D01*
X161176488Y-96781073D01*
X161027188Y-96751376D01*
X160863216Y-96683456D01*
X160715646Y-96584853D01*
X160590147Y-96459354D01*
X160491544Y-96311784D01*
X160423624Y-96147812D01*
X160389000Y-95973741D01*
X160389000Y-95796259D01*
X160423624Y-95622188D01*
X160491544Y-95458216D01*
X160590147Y-95310646D01*
X160715646Y-95185147D01*
X160863216Y-95086544D01*
X161027188Y-95018624D01*
X161176488Y-94988927D01*
X161201258Y-94984000D01*
X161378742Y-94984000D01*
X161403512Y-94988927D01*
G37*
G36*
X157531000Y-95440700D02*
G01*
X157022600Y-95440700D01*
X157022600Y-94297300D01*
X157531000Y-94297300D01*
X157531000Y-95440700D01*
G37*
G36*
X156261000Y-95440700D02*
G01*
X155752600Y-95440700D01*
X155752600Y-94297300D01*
X156261000Y-94297300D01*
X156261000Y-95440700D01*
G37*
G36*
X154991000Y-95440700D02*
G01*
X154482600Y-95440700D01*
X154482600Y-94297300D01*
X154991000Y-94297300D01*
X154991000Y-95440700D01*
G37*
G36*
X153721000Y-95440700D02*
G01*
X153212600Y-95440700D01*
X153212600Y-94297300D01*
X153721000Y-94297300D01*
X153721000Y-95440700D01*
G37*
G36*
X161403512Y-92448927D02*
G01*
X161552812Y-92478624D01*
X161716784Y-92546544D01*
X161864354Y-92645147D01*
X161989853Y-92770646D01*
X162088456Y-92918216D01*
X162156376Y-93082188D01*
X162191000Y-93256259D01*
X162191000Y-93433741D01*
X162156376Y-93607812D01*
X162088456Y-93771784D01*
X161989853Y-93919354D01*
X161864354Y-94044853D01*
X161716784Y-94143456D01*
X161552812Y-94211376D01*
X161403512Y-94241073D01*
X161378742Y-94246000D01*
X161201258Y-94246000D01*
X161176488Y-94241073D01*
X161027188Y-94211376D01*
X160863216Y-94143456D01*
X160715646Y-94044853D01*
X160590147Y-93919354D01*
X160491544Y-93771784D01*
X160423624Y-93607812D01*
X160389000Y-93433741D01*
X160389000Y-93256259D01*
X160423624Y-93082188D01*
X160491544Y-92918216D01*
X160590147Y-92770646D01*
X160715646Y-92645147D01*
X160863216Y-92546544D01*
X161027188Y-92478624D01*
X161176488Y-92448927D01*
X161201258Y-92444000D01*
X161378742Y-92444000D01*
X161403512Y-92448927D01*
G37*
G36*
X161403512Y-89908927D02*
G01*
X161552812Y-89938624D01*
X161716784Y-90006544D01*
X161864354Y-90105147D01*
X161989853Y-90230646D01*
X162088456Y-90378216D01*
X162156376Y-90542188D01*
X162191000Y-90716259D01*
X162191000Y-90893741D01*
X162156376Y-91067812D01*
X162088456Y-91231784D01*
X161989853Y-91379354D01*
X161864354Y-91504853D01*
X161716784Y-91603456D01*
X161552812Y-91671376D01*
X161403512Y-91701073D01*
X161378742Y-91706000D01*
X161201258Y-91706000D01*
X161176488Y-91701073D01*
X161027188Y-91671376D01*
X160863216Y-91603456D01*
X160715646Y-91504853D01*
X160590147Y-91379354D01*
X160491544Y-91231784D01*
X160423624Y-91067812D01*
X160389000Y-90893741D01*
X160389000Y-90716259D01*
X160423624Y-90542188D01*
X160491544Y-90378216D01*
X160590147Y-90230646D01*
X160715646Y-90105147D01*
X160863216Y-90006544D01*
X161027188Y-89938624D01*
X161176488Y-89908927D01*
X161201258Y-89904000D01*
X161378742Y-89904000D01*
X161403512Y-89908927D01*
G37*
G36*
X157531000Y-90487700D02*
G01*
X157022600Y-90487700D01*
X157022600Y-89344300D01*
X157531000Y-89344300D01*
X157531000Y-90487700D01*
G37*
G36*
X153721000Y-90487700D02*
G01*
X153212600Y-90487700D01*
X153212600Y-89344300D01*
X153721000Y-89344300D01*
X153721000Y-90487700D01*
G37*
G36*
X154991000Y-90487700D02*
G01*
X154482600Y-90487700D01*
X154482600Y-89344300D01*
X154991000Y-89344300D01*
X154991000Y-90487700D01*
G37*
G36*
X156261000Y-90487700D02*
G01*
X155752600Y-90487700D01*
X155752600Y-89344300D01*
X156261000Y-89344300D01*
X156261000Y-90487700D01*
G37*
G36*
X162191000Y-89166000D02*
G01*
X160389000Y-89166000D01*
X160389000Y-87364000D01*
X162191000Y-87364000D01*
X162191000Y-89166000D01*
G37*
M02*
