G04 #@! TF.GenerationSoftware,KiCad,Pcbnew,(5.1.5)-3*
G04 #@! TF.CreationDate,2020-06-24T13:55:20-05:00*
G04 #@! TF.ProjectId,PressureSensor,50726573-7375-4726-9553-656e736f722e,rev?*
G04 #@! TF.SameCoordinates,Original*
G04 #@! TF.FileFunction,Legend,Bot*
G04 #@! TF.FilePolarity,Positive*
%FSLAX46Y46*%
G04 Gerber Fmt 4.6, Leading zero omitted, Abs format (unit mm)*
G04 Created by KiCad (PCBNEW (5.1.5)-3) date 2020-06-24 13:55:20*
%MOMM*%
%LPD*%
G04 APERTURE LIST*
%ADD10C,0.127000*%
%ADD11C,0.095250*%
%ADD12C,0.010000*%
%ADD13C,0.120000*%
%ADD14C,0.150000*%
G04 APERTURE END LIST*
D10*
X156506333Y-95797309D02*
X156216047Y-95797309D01*
X156361190Y-96305309D02*
X156361190Y-95797309D01*
X156046714Y-96039214D02*
X155877380Y-96039214D01*
X155804809Y-96305309D02*
X156046714Y-96305309D01*
X156046714Y-95797309D01*
X155804809Y-95797309D01*
X155635476Y-95797309D02*
X155514523Y-96305309D01*
X155417761Y-95942452D01*
X155321000Y-96305309D01*
X155200047Y-95797309D01*
X155006523Y-96305309D02*
X155006523Y-95797309D01*
X155006523Y-96039214D02*
X154716238Y-96039214D01*
X154716238Y-96305309D02*
X154716238Y-95797309D01*
X158889095Y-96686309D02*
X158719761Y-97194309D01*
X158550428Y-96686309D01*
X158187571Y-97170119D02*
X158235952Y-97194309D01*
X158332714Y-97194309D01*
X158381095Y-97170119D01*
X158405285Y-97121738D01*
X158405285Y-96928214D01*
X158381095Y-96879833D01*
X158332714Y-96855642D01*
X158235952Y-96855642D01*
X158187571Y-96879833D01*
X158163380Y-96928214D01*
X158163380Y-96976595D01*
X158405285Y-97024976D01*
X157945666Y-96855642D02*
X157945666Y-97194309D01*
X157945666Y-96904023D02*
X157921476Y-96879833D01*
X157873095Y-96855642D01*
X157800523Y-96855642D01*
X157752142Y-96879833D01*
X157727952Y-96928214D01*
X157727952Y-97194309D01*
X157558619Y-96855642D02*
X157365095Y-96855642D01*
X157486047Y-96686309D02*
X157486047Y-97121738D01*
X157461857Y-97170119D01*
X157413476Y-97194309D01*
X157365095Y-97194309D01*
X157195761Y-97194309D02*
X157195761Y-96855642D01*
X157195761Y-96686309D02*
X157219952Y-96710500D01*
X157195761Y-96734690D01*
X157171571Y-96710500D01*
X157195761Y-96686309D01*
X157195761Y-96734690D01*
X156881285Y-97194309D02*
X156929666Y-97170119D01*
X156953857Y-97121738D01*
X156953857Y-96686309D01*
X156470047Y-97194309D02*
X156470047Y-96928214D01*
X156494238Y-96879833D01*
X156542619Y-96855642D01*
X156639380Y-96855642D01*
X156687761Y-96879833D01*
X156470047Y-97170119D02*
X156518428Y-97194309D01*
X156639380Y-97194309D01*
X156687761Y-97170119D01*
X156711952Y-97121738D01*
X156711952Y-97073357D01*
X156687761Y-97024976D01*
X156639380Y-97000785D01*
X156518428Y-97000785D01*
X156470047Y-96976595D01*
X156300714Y-96855642D02*
X156107190Y-96855642D01*
X156228142Y-96686309D02*
X156228142Y-97121738D01*
X156203952Y-97170119D01*
X156155571Y-97194309D01*
X156107190Y-97194309D01*
X155865285Y-97194309D02*
X155913666Y-97170119D01*
X155937857Y-97145928D01*
X155962047Y-97097547D01*
X155962047Y-96952404D01*
X155937857Y-96904023D01*
X155913666Y-96879833D01*
X155865285Y-96855642D01*
X155792714Y-96855642D01*
X155744333Y-96879833D01*
X155720142Y-96904023D01*
X155695952Y-96952404D01*
X155695952Y-97097547D01*
X155720142Y-97145928D01*
X155744333Y-97170119D01*
X155792714Y-97194309D01*
X155865285Y-97194309D01*
X155478238Y-97194309D02*
X155478238Y-96855642D01*
X155478238Y-96952404D02*
X155454047Y-96904023D01*
X155429857Y-96879833D01*
X155381476Y-96855642D01*
X155333095Y-96855642D01*
X154776714Y-97194309D02*
X154776714Y-96686309D01*
X154583190Y-96686309D01*
X154534809Y-96710500D01*
X154510619Y-96734690D01*
X154486428Y-96783071D01*
X154486428Y-96855642D01*
X154510619Y-96904023D01*
X154534809Y-96928214D01*
X154583190Y-96952404D01*
X154776714Y-96952404D01*
X154268714Y-97194309D02*
X154268714Y-96855642D01*
X154268714Y-96952404D02*
X154244523Y-96904023D01*
X154220333Y-96879833D01*
X154171952Y-96855642D01*
X154123571Y-96855642D01*
X153881666Y-97194309D02*
X153930047Y-97170119D01*
X153954238Y-97145928D01*
X153978428Y-97097547D01*
X153978428Y-96952404D01*
X153954238Y-96904023D01*
X153930047Y-96879833D01*
X153881666Y-96855642D01*
X153809095Y-96855642D01*
X153760714Y-96879833D01*
X153736523Y-96904023D01*
X153712333Y-96952404D01*
X153712333Y-97097547D01*
X153736523Y-97145928D01*
X153760714Y-97170119D01*
X153809095Y-97194309D01*
X153881666Y-97194309D01*
X153494619Y-96855642D02*
X153494619Y-97291071D01*
X153518809Y-97339452D01*
X153567190Y-97363642D01*
X153591380Y-97363642D01*
X153494619Y-96686309D02*
X153518809Y-96710500D01*
X153494619Y-96734690D01*
X153470428Y-96710500D01*
X153494619Y-96686309D01*
X153494619Y-96734690D01*
X153059190Y-97170119D02*
X153107571Y-97194309D01*
X153204333Y-97194309D01*
X153252714Y-97170119D01*
X153276904Y-97121738D01*
X153276904Y-96928214D01*
X153252714Y-96879833D01*
X153204333Y-96855642D01*
X153107571Y-96855642D01*
X153059190Y-96879833D01*
X153035000Y-96928214D01*
X153035000Y-96976595D01*
X153276904Y-97024976D01*
X152599571Y-97170119D02*
X152647952Y-97194309D01*
X152744714Y-97194309D01*
X152793095Y-97170119D01*
X152817285Y-97145928D01*
X152841476Y-97097547D01*
X152841476Y-96952404D01*
X152817285Y-96904023D01*
X152793095Y-96879833D01*
X152744714Y-96855642D01*
X152647952Y-96855642D01*
X152599571Y-96879833D01*
X152454428Y-96855642D02*
X152260904Y-96855642D01*
X152381857Y-96686309D02*
X152381857Y-97121738D01*
X152357666Y-97170119D01*
X152309285Y-97194309D01*
X152260904Y-97194309D01*
D11*
X164217047Y-95631000D02*
X164265428Y-95606809D01*
X164338000Y-95606809D01*
X164410571Y-95631000D01*
X164458952Y-95679380D01*
X164483142Y-95727761D01*
X164507333Y-95824523D01*
X164507333Y-95897095D01*
X164483142Y-95993857D01*
X164458952Y-96042238D01*
X164410571Y-96090619D01*
X164338000Y-96114809D01*
X164289619Y-96114809D01*
X164217047Y-96090619D01*
X164192857Y-96066428D01*
X164192857Y-95897095D01*
X164289619Y-95897095D01*
X163975142Y-96114809D02*
X163975142Y-95606809D01*
X163684857Y-96114809D01*
X163684857Y-95606809D01*
X163442952Y-96114809D02*
X163442952Y-95606809D01*
X163322000Y-95606809D01*
X163249428Y-95631000D01*
X163201047Y-95679380D01*
X163176857Y-95727761D01*
X163152666Y-95824523D01*
X163152666Y-95897095D01*
X163176857Y-95993857D01*
X163201047Y-96042238D01*
X163249428Y-96090619D01*
X163322000Y-96114809D01*
X163442952Y-96114809D01*
X164616190Y-93381285D02*
X164229142Y-93381285D01*
X164011428Y-93550619D02*
X163938857Y-93574809D01*
X163817904Y-93574809D01*
X163769523Y-93550619D01*
X163745333Y-93526428D01*
X163721142Y-93478047D01*
X163721142Y-93429666D01*
X163745333Y-93381285D01*
X163769523Y-93357095D01*
X163817904Y-93332904D01*
X163914666Y-93308714D01*
X163963047Y-93284523D01*
X163987238Y-93260333D01*
X164011428Y-93211952D01*
X164011428Y-93163571D01*
X163987238Y-93115190D01*
X163963047Y-93091000D01*
X163914666Y-93066809D01*
X163793714Y-93066809D01*
X163721142Y-93091000D01*
X163503428Y-93574809D02*
X163503428Y-93236142D01*
X163503428Y-93066809D02*
X163527619Y-93091000D01*
X163503428Y-93115190D01*
X163479238Y-93091000D01*
X163503428Y-93066809D01*
X163503428Y-93115190D01*
X163043809Y-93236142D02*
X163043809Y-93647380D01*
X163068000Y-93695761D01*
X163092190Y-93719952D01*
X163140571Y-93744142D01*
X163213142Y-93744142D01*
X163261523Y-93719952D01*
X163043809Y-93550619D02*
X163092190Y-93574809D01*
X163188952Y-93574809D01*
X163237333Y-93550619D01*
X163261523Y-93526428D01*
X163285714Y-93478047D01*
X163285714Y-93332904D01*
X163261523Y-93284523D01*
X163237333Y-93260333D01*
X163188952Y-93236142D01*
X163092190Y-93236142D01*
X163043809Y-93260333D01*
X164616190Y-90841285D02*
X164229142Y-90841285D01*
X164422666Y-91034809D02*
X164422666Y-90647761D01*
X164011428Y-91010619D02*
X163938857Y-91034809D01*
X163817904Y-91034809D01*
X163769523Y-91010619D01*
X163745333Y-90986428D01*
X163721142Y-90938047D01*
X163721142Y-90889666D01*
X163745333Y-90841285D01*
X163769523Y-90817095D01*
X163817904Y-90792904D01*
X163914666Y-90768714D01*
X163963047Y-90744523D01*
X163987238Y-90720333D01*
X164011428Y-90671952D01*
X164011428Y-90623571D01*
X163987238Y-90575190D01*
X163963047Y-90551000D01*
X163914666Y-90526809D01*
X163793714Y-90526809D01*
X163721142Y-90551000D01*
X163503428Y-91034809D02*
X163503428Y-90696142D01*
X163503428Y-90526809D02*
X163527619Y-90551000D01*
X163503428Y-90575190D01*
X163479238Y-90551000D01*
X163503428Y-90526809D01*
X163503428Y-90575190D01*
X163043809Y-90696142D02*
X163043809Y-91107380D01*
X163068000Y-91155761D01*
X163092190Y-91179952D01*
X163140571Y-91204142D01*
X163213142Y-91204142D01*
X163261523Y-91179952D01*
X163043809Y-91010619D02*
X163092190Y-91034809D01*
X163188952Y-91034809D01*
X163237333Y-91010619D01*
X163261523Y-90986428D01*
X163285714Y-90938047D01*
X163285714Y-90792904D01*
X163261523Y-90744523D01*
X163237333Y-90720333D01*
X163188952Y-90696142D01*
X163092190Y-90696142D01*
X163043809Y-90720333D01*
X164628285Y-88301285D02*
X164241238Y-88301285D01*
X164434761Y-88494809D02*
X164434761Y-88107761D01*
X164047714Y-87986809D02*
X163733238Y-87986809D01*
X163902571Y-88180333D01*
X163830000Y-88180333D01*
X163781619Y-88204523D01*
X163757428Y-88228714D01*
X163733238Y-88277095D01*
X163733238Y-88398047D01*
X163757428Y-88446428D01*
X163781619Y-88470619D01*
X163830000Y-88494809D01*
X163975142Y-88494809D01*
X164023523Y-88470619D01*
X164047714Y-88446428D01*
X163515523Y-88446428D02*
X163491333Y-88470619D01*
X163515523Y-88494809D01*
X163539714Y-88470619D01*
X163515523Y-88446428D01*
X163515523Y-88494809D01*
X163322000Y-87986809D02*
X163007523Y-87986809D01*
X163176857Y-88180333D01*
X163104285Y-88180333D01*
X163055904Y-88204523D01*
X163031714Y-88228714D01*
X163007523Y-88277095D01*
X163007523Y-88398047D01*
X163031714Y-88446428D01*
X163055904Y-88470619D01*
X163104285Y-88494809D01*
X163249428Y-88494809D01*
X163297809Y-88470619D01*
X163322000Y-88446428D01*
D12*
G36*
X157480000Y-91122500D02*
G01*
X157585834Y-91228333D01*
X157691667Y-91122500D01*
X157585834Y-91016666D01*
X157480000Y-91122500D01*
G37*
X157480000Y-91122500D02*
X157585834Y-91228333D01*
X157691667Y-91122500D01*
X157585834Y-91016666D01*
X157480000Y-91122500D01*
G36*
X156246879Y-91609432D02*
G01*
X156210000Y-91757500D01*
X156379433Y-92038121D01*
X156527500Y-92075000D01*
X156808122Y-91905567D01*
X156845000Y-91757500D01*
X156633334Y-91757500D01*
X156527500Y-91863333D01*
X156421667Y-91757500D01*
X156527500Y-91651666D01*
X156633334Y-91757500D01*
X156845000Y-91757500D01*
X156675568Y-91476878D01*
X156527500Y-91440000D01*
X156246879Y-91609432D01*
G37*
X156246879Y-91609432D02*
X156210000Y-91757500D01*
X156379433Y-92038121D01*
X156527500Y-92075000D01*
X156808122Y-91905567D01*
X156845000Y-91757500D01*
X156633334Y-91757500D01*
X156527500Y-91863333D01*
X156421667Y-91757500D01*
X156527500Y-91651666D01*
X156633334Y-91757500D01*
X156845000Y-91757500D01*
X156675568Y-91476878D01*
X156527500Y-91440000D01*
X156246879Y-91609432D01*
G36*
X157903334Y-91969166D02*
G01*
X158009167Y-92075000D01*
X158115000Y-91969166D01*
X158009167Y-91863333D01*
X157903334Y-91969166D01*
G37*
X157903334Y-91969166D02*
X158009167Y-92075000D01*
X158115000Y-91969166D01*
X158009167Y-91863333D01*
X157903334Y-91969166D01*
G36*
X154305000Y-89640833D02*
G01*
X154410834Y-89746666D01*
X154516667Y-89640833D01*
X154410834Y-89535000D01*
X154305000Y-89640833D01*
G37*
X154305000Y-89640833D02*
X154410834Y-89746666D01*
X154516667Y-89640833D01*
X154410834Y-89535000D01*
X154305000Y-89640833D01*
G36*
X154831424Y-88330703D02*
G01*
X154774723Y-88339477D01*
X153684663Y-88711478D01*
X152839661Y-89399973D01*
X152289235Y-90345986D01*
X152082901Y-91490546D01*
X152082500Y-91545833D01*
X152212191Y-92591631D01*
X152640794Y-93438544D01*
X153427607Y-94199882D01*
X153500149Y-94254779D01*
X154248927Y-94602198D01*
X155181296Y-94750103D01*
X156098059Y-94679764D01*
X156527500Y-94539401D01*
X157506503Y-93879060D01*
X157587237Y-93770725D01*
X157380124Y-93770725D01*
X157333135Y-93844643D01*
X157050262Y-93969352D01*
X156917181Y-93714279D01*
X156915556Y-93662500D01*
X156982233Y-93450833D01*
X156633334Y-93450833D01*
X156527500Y-93556666D01*
X156421667Y-93450833D01*
X156527500Y-93345000D01*
X156633334Y-93450833D01*
X156982233Y-93450833D01*
X157004396Y-93380477D01*
X157079453Y-93345000D01*
X157330360Y-93493616D01*
X157380124Y-93770725D01*
X157587237Y-93770725D01*
X158164772Y-92995753D01*
X158283913Y-92604166D01*
X158115000Y-92604166D01*
X158009167Y-92710000D01*
X157903334Y-92604166D01*
X158009167Y-92498333D01*
X158115000Y-92604166D01*
X158283913Y-92604166D01*
X158478078Y-91965994D01*
X158423102Y-90884235D01*
X158272550Y-90884235D01*
X158147110Y-91023921D01*
X158009167Y-91134205D01*
X157723241Y-91392970D01*
X157769539Y-91556708D01*
X157960702Y-91676900D01*
X158211660Y-91930994D01*
X158210660Y-92091461D01*
X157956115Y-92199579D01*
X157888708Y-92171794D01*
X157704057Y-92194654D01*
X157691667Y-92260158D01*
X157513917Y-92379068D01*
X157109584Y-92365821D01*
X156730242Y-92325613D01*
X156704501Y-92429199D01*
X156792084Y-92528004D01*
X157033725Y-92885512D01*
X156973787Y-93105797D01*
X156845000Y-93133333D01*
X156652917Y-92963832D01*
X156633334Y-92841650D01*
X156473284Y-92515246D01*
X156157084Y-92226367D01*
X155835218Y-91926145D01*
X155856469Y-91618773D01*
X155907623Y-91525231D01*
X156194741Y-91179432D01*
X156359304Y-91072732D01*
X156696980Y-91147183D01*
X157008385Y-91460802D01*
X157150635Y-91845799D01*
X157129940Y-91977692D01*
X157130435Y-92195576D01*
X157350600Y-92160587D01*
X157628902Y-91990358D01*
X157636567Y-91732327D01*
X157362132Y-91293712D01*
X157220814Y-91110164D01*
X156948129Y-90730344D01*
X156949589Y-90620569D01*
X156332667Y-90620569D01*
X156318048Y-90781631D01*
X155942730Y-90762773D01*
X155930365Y-90760432D01*
X155542961Y-90741382D01*
X155521959Y-90888493D01*
X155613298Y-91271570D01*
X155604770Y-91609956D01*
X155647914Y-92114417D01*
X155772661Y-92375623D01*
X155872596Y-92684914D01*
X155683444Y-92919500D01*
X155393309Y-93396598D01*
X155463609Y-93952163D01*
X155695953Y-94282380D01*
X155881657Y-94511206D01*
X155758380Y-94600844D01*
X155371654Y-94615000D01*
X154701167Y-94528976D01*
X154016241Y-94323149D01*
X153458972Y-93988960D01*
X152925273Y-93510819D01*
X152533480Y-93011507D01*
X152400000Y-92646177D01*
X152493299Y-92533377D01*
X152539275Y-92567052D01*
X152795910Y-92577766D01*
X152935840Y-92492795D01*
X153222125Y-92483134D01*
X153551347Y-92813652D01*
X153863786Y-93413829D01*
X153971256Y-93715416D01*
X154188478Y-94121946D01*
X154419306Y-94121096D01*
X154614978Y-93724199D01*
X154654250Y-93556666D01*
X154839447Y-93096076D01*
X155095849Y-92921666D01*
X155290408Y-92833152D01*
X155318977Y-92502164D01*
X155261630Y-92128401D01*
X155148025Y-91707429D01*
X154877912Y-91707429D01*
X154834167Y-91863333D01*
X154532096Y-92047505D01*
X154345425Y-92071758D01*
X154108544Y-92037504D01*
X154262406Y-91891176D01*
X154305000Y-91863333D01*
X154692812Y-91676353D01*
X154877912Y-91707429D01*
X155148025Y-91707429D01*
X155113784Y-91580548D01*
X154937778Y-91235855D01*
X154902495Y-91205153D01*
X154714269Y-90985555D01*
X154710255Y-90940084D01*
X154684877Y-90527900D01*
X154387136Y-90387664D01*
X154231973Y-90381666D01*
X153711294Y-90249803D01*
X153314633Y-89929768D01*
X153140354Y-89534888D01*
X153234386Y-89232297D01*
X153674286Y-88911017D01*
X154304190Y-88663980D01*
X154933505Y-88549316D01*
X155319147Y-88596455D01*
X155507347Y-88723396D01*
X155331967Y-88825009D01*
X155104085Y-88880334D01*
X154708843Y-89006948D01*
X154658532Y-89229117D01*
X154786585Y-89518284D01*
X155105168Y-89977876D01*
X155388992Y-90112637D01*
X155565343Y-89905089D01*
X155589878Y-89711388D01*
X155614390Y-89376046D01*
X155690608Y-89443476D01*
X155772253Y-89640833D01*
X155861319Y-90121529D01*
X155827239Y-90363472D01*
X155831338Y-90556366D01*
X155947738Y-90518770D01*
X156247537Y-90530972D01*
X156332667Y-90620569D01*
X156949589Y-90620569D01*
X156949748Y-90608617D01*
X157108202Y-90649041D01*
X157469386Y-90670675D01*
X157591547Y-90584089D01*
X157892050Y-90401986D01*
X157968742Y-90398377D01*
X158094637Y-90449450D01*
X157956250Y-90521849D01*
X157707130Y-90736923D01*
X157761705Y-90930432D01*
X158062084Y-90932959D01*
X158272550Y-90884235D01*
X158423102Y-90884235D01*
X158422190Y-90866295D01*
X158102840Y-90064166D01*
X157903334Y-90064166D01*
X157797500Y-90170000D01*
X157691667Y-90064166D01*
X157797500Y-89958333D01*
X157903334Y-90064166D01*
X158102840Y-90064166D01*
X158014778Y-89842978D01*
X157945288Y-89746666D01*
X157056667Y-89746666D01*
X156904748Y-89952274D01*
X156857492Y-89958333D01*
X156570825Y-89804473D01*
X156527500Y-89746666D01*
X156575485Y-89565458D01*
X156726675Y-89535000D01*
X157016281Y-89645511D01*
X157056667Y-89746666D01*
X157945288Y-89746666D01*
X157483793Y-89107048D01*
X157336083Y-89005833D01*
X155998334Y-89005833D01*
X155892500Y-89111666D01*
X155786667Y-89005833D01*
X155892500Y-88900000D01*
X155998334Y-89005833D01*
X157336083Y-89005833D01*
X156992807Y-88770611D01*
X156581528Y-88826184D01*
X156456841Y-88831277D01*
X156503453Y-88727243D01*
X156458716Y-88510353D01*
X156096088Y-88356480D01*
X155519134Y-88288853D01*
X154831424Y-88330703D01*
G37*
X154831424Y-88330703D02*
X154774723Y-88339477D01*
X153684663Y-88711478D01*
X152839661Y-89399973D01*
X152289235Y-90345986D01*
X152082901Y-91490546D01*
X152082500Y-91545833D01*
X152212191Y-92591631D01*
X152640794Y-93438544D01*
X153427607Y-94199882D01*
X153500149Y-94254779D01*
X154248927Y-94602198D01*
X155181296Y-94750103D01*
X156098059Y-94679764D01*
X156527500Y-94539401D01*
X157506503Y-93879060D01*
X157587237Y-93770725D01*
X157380124Y-93770725D01*
X157333135Y-93844643D01*
X157050262Y-93969352D01*
X156917181Y-93714279D01*
X156915556Y-93662500D01*
X156982233Y-93450833D01*
X156633334Y-93450833D01*
X156527500Y-93556666D01*
X156421667Y-93450833D01*
X156527500Y-93345000D01*
X156633334Y-93450833D01*
X156982233Y-93450833D01*
X157004396Y-93380477D01*
X157079453Y-93345000D01*
X157330360Y-93493616D01*
X157380124Y-93770725D01*
X157587237Y-93770725D01*
X158164772Y-92995753D01*
X158283913Y-92604166D01*
X158115000Y-92604166D01*
X158009167Y-92710000D01*
X157903334Y-92604166D01*
X158009167Y-92498333D01*
X158115000Y-92604166D01*
X158283913Y-92604166D01*
X158478078Y-91965994D01*
X158423102Y-90884235D01*
X158272550Y-90884235D01*
X158147110Y-91023921D01*
X158009167Y-91134205D01*
X157723241Y-91392970D01*
X157769539Y-91556708D01*
X157960702Y-91676900D01*
X158211660Y-91930994D01*
X158210660Y-92091461D01*
X157956115Y-92199579D01*
X157888708Y-92171794D01*
X157704057Y-92194654D01*
X157691667Y-92260158D01*
X157513917Y-92379068D01*
X157109584Y-92365821D01*
X156730242Y-92325613D01*
X156704501Y-92429199D01*
X156792084Y-92528004D01*
X157033725Y-92885512D01*
X156973787Y-93105797D01*
X156845000Y-93133333D01*
X156652917Y-92963832D01*
X156633334Y-92841650D01*
X156473284Y-92515246D01*
X156157084Y-92226367D01*
X155835218Y-91926145D01*
X155856469Y-91618773D01*
X155907623Y-91525231D01*
X156194741Y-91179432D01*
X156359304Y-91072732D01*
X156696980Y-91147183D01*
X157008385Y-91460802D01*
X157150635Y-91845799D01*
X157129940Y-91977692D01*
X157130435Y-92195576D01*
X157350600Y-92160587D01*
X157628902Y-91990358D01*
X157636567Y-91732327D01*
X157362132Y-91293712D01*
X157220814Y-91110164D01*
X156948129Y-90730344D01*
X156949589Y-90620569D01*
X156332667Y-90620569D01*
X156318048Y-90781631D01*
X155942730Y-90762773D01*
X155930365Y-90760432D01*
X155542961Y-90741382D01*
X155521959Y-90888493D01*
X155613298Y-91271570D01*
X155604770Y-91609956D01*
X155647914Y-92114417D01*
X155772661Y-92375623D01*
X155872596Y-92684914D01*
X155683444Y-92919500D01*
X155393309Y-93396598D01*
X155463609Y-93952163D01*
X155695953Y-94282380D01*
X155881657Y-94511206D01*
X155758380Y-94600844D01*
X155371654Y-94615000D01*
X154701167Y-94528976D01*
X154016241Y-94323149D01*
X153458972Y-93988960D01*
X152925273Y-93510819D01*
X152533480Y-93011507D01*
X152400000Y-92646177D01*
X152493299Y-92533377D01*
X152539275Y-92567052D01*
X152795910Y-92577766D01*
X152935840Y-92492795D01*
X153222125Y-92483134D01*
X153551347Y-92813652D01*
X153863786Y-93413829D01*
X153971256Y-93715416D01*
X154188478Y-94121946D01*
X154419306Y-94121096D01*
X154614978Y-93724199D01*
X154654250Y-93556666D01*
X154839447Y-93096076D01*
X155095849Y-92921666D01*
X155290408Y-92833152D01*
X155318977Y-92502164D01*
X155261630Y-92128401D01*
X155148025Y-91707429D01*
X154877912Y-91707429D01*
X154834167Y-91863333D01*
X154532096Y-92047505D01*
X154345425Y-92071758D01*
X154108544Y-92037504D01*
X154262406Y-91891176D01*
X154305000Y-91863333D01*
X154692812Y-91676353D01*
X154877912Y-91707429D01*
X155148025Y-91707429D01*
X155113784Y-91580548D01*
X154937778Y-91235855D01*
X154902495Y-91205153D01*
X154714269Y-90985555D01*
X154710255Y-90940084D01*
X154684877Y-90527900D01*
X154387136Y-90387664D01*
X154231973Y-90381666D01*
X153711294Y-90249803D01*
X153314633Y-89929768D01*
X153140354Y-89534888D01*
X153234386Y-89232297D01*
X153674286Y-88911017D01*
X154304190Y-88663980D01*
X154933505Y-88549316D01*
X155319147Y-88596455D01*
X155507347Y-88723396D01*
X155331967Y-88825009D01*
X155104085Y-88880334D01*
X154708843Y-89006948D01*
X154658532Y-89229117D01*
X154786585Y-89518284D01*
X155105168Y-89977876D01*
X155388992Y-90112637D01*
X155565343Y-89905089D01*
X155589878Y-89711388D01*
X155614390Y-89376046D01*
X155690608Y-89443476D01*
X155772253Y-89640833D01*
X155861319Y-90121529D01*
X155827239Y-90363472D01*
X155831338Y-90556366D01*
X155947738Y-90518770D01*
X156247537Y-90530972D01*
X156332667Y-90620569D01*
X156949589Y-90620569D01*
X156949748Y-90608617D01*
X157108202Y-90649041D01*
X157469386Y-90670675D01*
X157591547Y-90584089D01*
X157892050Y-90401986D01*
X157968742Y-90398377D01*
X158094637Y-90449450D01*
X157956250Y-90521849D01*
X157707130Y-90736923D01*
X157761705Y-90930432D01*
X158062084Y-90932959D01*
X158272550Y-90884235D01*
X158423102Y-90884235D01*
X158422190Y-90866295D01*
X158102840Y-90064166D01*
X157903334Y-90064166D01*
X157797500Y-90170000D01*
X157691667Y-90064166D01*
X157797500Y-89958333D01*
X157903334Y-90064166D01*
X158102840Y-90064166D01*
X158014778Y-89842978D01*
X157945288Y-89746666D01*
X157056667Y-89746666D01*
X156904748Y-89952274D01*
X156857492Y-89958333D01*
X156570825Y-89804473D01*
X156527500Y-89746666D01*
X156575485Y-89565458D01*
X156726675Y-89535000D01*
X157016281Y-89645511D01*
X157056667Y-89746666D01*
X157945288Y-89746666D01*
X157483793Y-89107048D01*
X157336083Y-89005833D01*
X155998334Y-89005833D01*
X155892500Y-89111666D01*
X155786667Y-89005833D01*
X155892500Y-88900000D01*
X155998334Y-89005833D01*
X157336083Y-89005833D01*
X156992807Y-88770611D01*
X156581528Y-88826184D01*
X156456841Y-88831277D01*
X156503453Y-88727243D01*
X156458716Y-88510353D01*
X156096088Y-88356480D01*
X155519134Y-88288853D01*
X154831424Y-88330703D01*
D13*
X162620000Y-86935000D02*
X161290000Y-86935000D01*
X162620000Y-88265000D02*
X162620000Y-86935000D01*
X162620000Y-89535000D02*
X159960000Y-89535000D01*
X159960000Y-89535000D02*
X159960000Y-97215000D01*
X162620000Y-89535000D02*
X162620000Y-97215000D01*
X162620000Y-97215000D02*
X159960000Y-97215000D01*
D14*
X161623333Y-97877380D02*
X161623333Y-98591666D01*
X161670952Y-98734523D01*
X161766190Y-98829761D01*
X161909047Y-98877380D01*
X162004285Y-98877380D01*
X160623333Y-98877380D02*
X161194761Y-98877380D01*
X160909047Y-98877380D02*
X160909047Y-97877380D01*
X161004285Y-98020238D01*
X161099523Y-98115476D01*
X161194761Y-98163095D01*
M02*
