G04 #@! TF.GenerationSoftware,KiCad,Pcbnew,(5.1.5)-3*
G04 #@! TF.CreationDate,2020-06-24T13:55:20-05:00*
G04 #@! TF.ProjectId,PressureSensor,50726573-7375-4726-9553-656e736f722e,rev?*
G04 #@! TF.SameCoordinates,Original*
G04 #@! TF.FileFunction,Legend,Top*
G04 #@! TF.FilePolarity,Positive*
%FSLAX46Y46*%
G04 Gerber Fmt 4.6, Leading zero omitted, Abs format (unit mm)*
G04 Created by KiCad (PCBNEW (5.1.5)-3) date 2020-06-24 13:55:20*
%MOMM*%
%LPD*%
G04 APERTURE LIST*
%ADD10C,0.095250*%
%ADD11C,0.120000*%
%ADD12C,0.100000*%
%ADD13C,0.150000*%
G04 APERTURE END LIST*
D10*
X163442952Y-95631000D02*
X163394571Y-95606809D01*
X163322000Y-95606809D01*
X163249428Y-95631000D01*
X163201047Y-95679380D01*
X163176857Y-95727761D01*
X163152666Y-95824523D01*
X163152666Y-95897095D01*
X163176857Y-95993857D01*
X163201047Y-96042238D01*
X163249428Y-96090619D01*
X163322000Y-96114809D01*
X163370380Y-96114809D01*
X163442952Y-96090619D01*
X163467142Y-96066428D01*
X163467142Y-95897095D01*
X163370380Y-95897095D01*
X163684857Y-96114809D02*
X163684857Y-95606809D01*
X163975142Y-96114809D01*
X163975142Y-95606809D01*
X164217047Y-96114809D02*
X164217047Y-95606809D01*
X164338000Y-95606809D01*
X164410571Y-95631000D01*
X164458952Y-95679380D01*
X164483142Y-95727761D01*
X164507333Y-95824523D01*
X164507333Y-95897095D01*
X164483142Y-95993857D01*
X164458952Y-96042238D01*
X164410571Y-96090619D01*
X164338000Y-96114809D01*
X164217047Y-96114809D01*
X163043809Y-93381285D02*
X163430857Y-93381285D01*
X163648571Y-93550619D02*
X163721142Y-93574809D01*
X163842095Y-93574809D01*
X163890476Y-93550619D01*
X163914666Y-93526428D01*
X163938857Y-93478047D01*
X163938857Y-93429666D01*
X163914666Y-93381285D01*
X163890476Y-93357095D01*
X163842095Y-93332904D01*
X163745333Y-93308714D01*
X163696952Y-93284523D01*
X163672761Y-93260333D01*
X163648571Y-93211952D01*
X163648571Y-93163571D01*
X163672761Y-93115190D01*
X163696952Y-93091000D01*
X163745333Y-93066809D01*
X163866285Y-93066809D01*
X163938857Y-93091000D01*
X164156571Y-93574809D02*
X164156571Y-93236142D01*
X164156571Y-93066809D02*
X164132380Y-93091000D01*
X164156571Y-93115190D01*
X164180761Y-93091000D01*
X164156571Y-93066809D01*
X164156571Y-93115190D01*
X164616190Y-93236142D02*
X164616190Y-93647380D01*
X164592000Y-93695761D01*
X164567809Y-93719952D01*
X164519428Y-93744142D01*
X164446857Y-93744142D01*
X164398476Y-93719952D01*
X164616190Y-93550619D02*
X164567809Y-93574809D01*
X164471047Y-93574809D01*
X164422666Y-93550619D01*
X164398476Y-93526428D01*
X164374285Y-93478047D01*
X164374285Y-93332904D01*
X164398476Y-93284523D01*
X164422666Y-93260333D01*
X164471047Y-93236142D01*
X164567809Y-93236142D01*
X164616190Y-93260333D01*
X163043809Y-90841285D02*
X163430857Y-90841285D01*
X163237333Y-91034809D02*
X163237333Y-90647761D01*
X163648571Y-91010619D02*
X163721142Y-91034809D01*
X163842095Y-91034809D01*
X163890476Y-91010619D01*
X163914666Y-90986428D01*
X163938857Y-90938047D01*
X163938857Y-90889666D01*
X163914666Y-90841285D01*
X163890476Y-90817095D01*
X163842095Y-90792904D01*
X163745333Y-90768714D01*
X163696952Y-90744523D01*
X163672761Y-90720333D01*
X163648571Y-90671952D01*
X163648571Y-90623571D01*
X163672761Y-90575190D01*
X163696952Y-90551000D01*
X163745333Y-90526809D01*
X163866285Y-90526809D01*
X163938857Y-90551000D01*
X164156571Y-91034809D02*
X164156571Y-90696142D01*
X164156571Y-90526809D02*
X164132380Y-90551000D01*
X164156571Y-90575190D01*
X164180761Y-90551000D01*
X164156571Y-90526809D01*
X164156571Y-90575190D01*
X164616190Y-90696142D02*
X164616190Y-91107380D01*
X164592000Y-91155761D01*
X164567809Y-91179952D01*
X164519428Y-91204142D01*
X164446857Y-91204142D01*
X164398476Y-91179952D01*
X164616190Y-91010619D02*
X164567809Y-91034809D01*
X164471047Y-91034809D01*
X164422666Y-91010619D01*
X164398476Y-90986428D01*
X164374285Y-90938047D01*
X164374285Y-90792904D01*
X164398476Y-90744523D01*
X164422666Y-90720333D01*
X164471047Y-90696142D01*
X164567809Y-90696142D01*
X164616190Y-90720333D01*
X163031714Y-88301285D02*
X163418761Y-88301285D01*
X163225238Y-88494809D02*
X163225238Y-88107761D01*
X163612285Y-87986809D02*
X163926761Y-87986809D01*
X163757428Y-88180333D01*
X163830000Y-88180333D01*
X163878380Y-88204523D01*
X163902571Y-88228714D01*
X163926761Y-88277095D01*
X163926761Y-88398047D01*
X163902571Y-88446428D01*
X163878380Y-88470619D01*
X163830000Y-88494809D01*
X163684857Y-88494809D01*
X163636476Y-88470619D01*
X163612285Y-88446428D01*
X164144476Y-88446428D02*
X164168666Y-88470619D01*
X164144476Y-88494809D01*
X164120285Y-88470619D01*
X164144476Y-88446428D01*
X164144476Y-88494809D01*
X164338000Y-87986809D02*
X164652476Y-87986809D01*
X164483142Y-88180333D01*
X164555714Y-88180333D01*
X164604095Y-88204523D01*
X164628285Y-88228714D01*
X164652476Y-88277095D01*
X164652476Y-88398047D01*
X164628285Y-88446428D01*
X164604095Y-88470619D01*
X164555714Y-88494809D01*
X164410571Y-88494809D01*
X164362190Y-88470619D01*
X164338000Y-88446428D01*
D11*
X157937200Y-90297000D02*
X157759400Y-90297000D01*
X157937200Y-94411800D02*
X157937200Y-90297000D01*
X157759400Y-94411800D02*
X157937200Y-94411800D01*
X152781000Y-90297000D02*
X152933400Y-90297000D01*
X152781000Y-94411800D02*
X152781000Y-90297000D01*
X152933400Y-94411800D02*
X152781000Y-94411800D01*
X152933400Y-95402400D02*
X152933400Y-94411800D01*
D12*
G36*
X152552400Y-94716600D02*
G01*
X152692100Y-94767400D01*
X152463500Y-94894400D01*
X152552400Y-94716600D01*
G37*
X152552400Y-94716600D02*
X152692100Y-94767400D01*
X152463500Y-94894400D01*
X152552400Y-94716600D01*
G36*
X152438100Y-94716600D02*
G01*
X152742900Y-94907100D01*
X152704800Y-94983300D01*
X152412700Y-95059500D01*
X152438100Y-94716600D01*
G37*
X152438100Y-94716600D02*
X152742900Y-94907100D01*
X152704800Y-94983300D01*
X152412700Y-95059500D01*
X152438100Y-94716600D01*
D11*
X152761854Y-94894400D02*
G75*
G03X152761854Y-94894400I-209454J0D01*
G01*
D13*
X154813095Y-95972380D02*
X154813095Y-96781904D01*
X154860714Y-96877142D01*
X154908333Y-96924761D01*
X155003571Y-96972380D01*
X155194047Y-96972380D01*
X155289285Y-96924761D01*
X155336904Y-96877142D01*
X155384523Y-96781904D01*
X155384523Y-95972380D01*
X156384523Y-96972380D02*
X155813095Y-96972380D01*
X156098809Y-96972380D02*
X156098809Y-95972380D01*
X156003571Y-96115238D01*
X155908333Y-96210476D01*
X155813095Y-96258095D01*
M02*
